<?xml version="1.0" encoding="UTF-8"?><svg id="a" xmlns="http://www.w3.org/2000/svg" width="1200" height="197.08" viewBox="0 0 1200 197.08"><polygon points="150.61 2.14 95.95 122.88 96.67 2.14 44.33 2.14 0 194.41 34.72 194.41 67.05 53.76 65.69 194.41 93.47 194.41 156.67 54.23 124.44 194.41 161.29 194.41 205.62 2.14 150.61 2.14" fill="#f6f6f6"/><path d="M278.26,2.14h-29.64l-81.45,192.27h37.12l15.92-41.39h36.68l-2.93,41.39h37.65l6.14-192.27h-19.49ZM231.51,123.64l33.65-87.48-6.2,87.48h-27.46Z" fill="#f6f6f6"/><path d="M424.38,83.18c5.69-9.7,8.63-20.52,8.81-32.45.17-9.61-1.56-18.07-5.21-25.37-3.65-7.3-8.9-12.99-15.75-17.09-6.86-4.09-15.09-6.14-24.7-6.14h-46.46l-44.33,192.27h37.92l18.46-79.85h3.93l11.53,79.85h39.25l-16.33-83.65c3.43-1.24,6.74-2.76,9.92-4.61,9.61-5.61,17.27-13.26,22.97-22.97ZM392.47,69.03c-2.58,5.43-5.97,9.84-10.15,13.22-4.18,3.38-8.68,5.07-13.49,5.07h-9.43l12.9-55.81h9.35c4.63,0,8.28,1.74,10.95,5.21,2.67,3.47,3.91,8.24,3.74,14.29,0,6.59-1.29,12.6-3.87,18.02Z" fill="#f6f6f6"/><path d="M505.34,91.59l-15.22-16.82c-3.74-4.09-6.45-8.01-8.15-11.75-1.69-3.74-2.54-7.83-2.54-12.28,0-2.84.53-5.92,1.6-9.21,1.07-3.29,2.89-6.14,5.47-8.55,2.58-2.4,5.92-3.61,10.01-3.61,5.16,0,8.63,1.56,10.41,4.67,1.78,3.12,2.58,6.85,2.4,11.22-.18,4.36-.71,8.32-1.6,11.88h34.18c1.78-6.94,2.4-13.84,1.87-20.7-.53-6.85-2.45-12.99-5.74-18.43-3.3-5.43-8.06-9.79-14.29-13.08-6.23-3.29-14.15-4.94-23.77-4.94-13,0-23.68,2.76-32.05,8.28-8.37,5.52-14.6,12.69-18.69,21.5-4.1,8.81-6.14,18.2-6.14,28.17,0,8.19,1.69,16.07,5.07,23.63,3.38,7.57,8.1,14.65,14.15,21.23l15.49,16.82c4.09,4.27,6.81,8.51,8.15,12.69,1.34,4.18,2,8.24,2,12.15,0,6.05-1.6,11.44-4.81,16.15-3.2,4.72-7.66,7.08-13.35,7.08-4.63,0-8.24-1.16-10.82-3.47-2.58-2.31-4.36-5.3-5.34-8.95-.98-3.65-1.38-7.48-1.2-11.48.17-4.01.71-7.61,1.6-10.82h-34.98c-2.14,8.01-2.85,15.85-2.14,23.5.71,7.66,2.94,14.55,6.68,20.7,3.74,6.14,9.12,11,16.16,14.55,7.03,3.56,15.71,5.34,26.04,5.34,13.17,0,24.07-2.71,32.71-8.14,8.63-5.43,15.09-12.46,19.36-21.1,4.27-8.63,6.41-17.58,6.41-26.84,0-9.79-1.56-18.69-4.67-26.7-3.12-8.01-7.88-15.58-14.29-22.7Z" fill="#f6f6f6"/><polygon points="645.32 2.14 627.58 79.58 593.13 79.58 610.88 2.14 572.96 2.14 528.89 194.41 566.81 194.41 586.4 108.95 620.85 108.95 601.26 194.41 639.18 194.41 683.24 2.14 645.32 2.14" fill="#f6f6f6"/><path d="M756.17,2.14h-29.64l-81.45,192.27h37.12l15.92-41.39h36.68l-2.93,41.39h37.65l6.14-192.27h-19.49ZM709.43,123.64l33.65-87.47-6.2,87.47h-27.46Z" fill="#f6f6f6"/><polygon points="856.9 2.14 818.98 2.14 774.65 194.41 793.88 194.41 812.57 194.41 856.9 194.41 863.57 165.03 819.34 165.03 856.9 2.14" fill="#f6f6f6"/><polygon points="948.33 2.14 910.41 2.14 866.08 194.41 885.31 194.41 904.01 194.41 948.33 194.41 955.01 165.03 910.78 165.03 948.33 2.14" fill="#f6f6f6"/><polygon points="1008.18 2.15 986.07 2.15 960.23 114.24 971.44 114.24 982.34 114.24 1008.18 114.24 1012.07 97.12 986.29 97.12 1008.18 2.15" fill="#f6f6f6"/><path d="M1070.89,2.15h-11.05l-47.48,112.09h21.64l9.28-24.13h21.38l-1.71,24.13h21.95l3.58-112.09h-17.59ZM1049.87,72.99l19.62-50.99-3.61,50.99h-16.01Z" fill="#f6f6f6"/><polygon points="1179.45 2.15 1151.51 91.28 1162.17 2.15 1138.97 2.15 1109.11 89.68 1122 2.15 1101.14 2.15 1088.69 114.24 1115.77 114.24 1144.69 27.61 1133.68 114.24 1160.77 114.24 1200 2.15 1179.45 2.15" fill="#f6f6f6"/></svg>